<?xml version="1.0" encoding="UTF-8"?>
<svg width="1440px" height="330px" viewBox="0 0 1440 330" version="1.1" xmlns="http://www.w3.org/2000/svg" xmlns:xlink="http://www.w3.org/1999/xlink">
    <!-- Generator: Sketch 47.1 (45422) - http://www.bohemiancoding.com/sketch -->
    <title>Calgary Skyline</title>
    <desc>Created with Sketch.</desc>
    <defs>
        <linearGradient x1="51.1146851%" y1="0%" x2="51.1146843%" y2="100%" id="linearGradient-1">
            <stop stop-color="#EE3124" offset="0%"></stop>
            <stop stop-color="#FFFFFF" offset="100%"></stop>
        </linearGradient>
    </defs>
    <g id="Symbols" stroke="none" stroke-width="1" fill="none" fill-rule="evenodd">
        <g id="Footer" transform="translate(0.000000, -315.000000)" fill-rule="nonzero" fill="url(#linearGradient-1)">
            <path d="M1358.71279,359.603857 L1358.71279,369.765363 L1350.15528,369.765363 L1350.15528,480.989674 L1346.47463,480.989674 L1346.47463,455.07047 L1327.7217,455.07047 L1326.65431,462.047302 L1320.76527,462.047302 L1320.76527,427.789036 L1279.08188,427.789036 L1279.08188,346.791523 L1180.20116,346.791523 L1180.20116,404.3918 L1173.57598,404.3918 L1173.57598,413.596062 L1150.20384,413.596062 L1144.55404,419.578833 L1144.55404,445.350769 L1135.79409,445.350769 L1135.79409,452.935081 L1096.50312,452.935081 L1096.50312,445.350769 L1083.62084,445.350769 L1083.62084,455.714769 L1079.20406,455.714769 L1079.20406,545.58519 L1074.9345,545.58519 L1074.9345,542.768686 L1073.33342,542.768686 L1073.33342,503.724203 L1043.57534,503.724203 L1043.57534,451.591259 L1013.63324,419.578833 L1003.8059,419.578833 L1003.62186,421.069924 L1000.78776,423.904837 L1000.78776,458.881035 L993.426457,458.881035 L993.426457,428.911956 L992.027809,428.911956 L992.027809,419.063395 L985.678684,419.063395 L976.697893,404.483842 L968.563651,404.483842 L959.969328,418.032517 L950.767697,418.032517 L950.767697,458.936261 L944.473782,458.936261 L944.473782,463.354307 L933.321405,463.354307 L933.321405,467.753944 L913.813948,467.753944 L913.813948,431.415515 L899.091339,431.415515 L899.091339,399.881711 L891.269953,399.881711 L891.269953,391.045619 L887.791736,391.045619 L887.791736,365.476177 L884.589569,362.273093 L878.22204,362.273093 L874.964663,358.260035 L818.227408,358.260035 L818.227408,362.273093 L807.185451,362.273093 L807.185451,372.821179 L803.210347,372.821179 L803.210347,401.925057 L801.093972,401.925057 L801.093972,437.214201 L767.968101,437.214201 L767.968101,456.395884 L761.563766,456.395884 L761.563766,442.828801 L753.135072,442.828801 L751.93886,441.632247 L748.405434,441.632247 L748.405434,439.331181 L699.581581,439.331181 L699.581581,327.039176 L688.318785,315 L605.264866,315 L605.264866,434.526556 L597.572303,434.526556 L597.572303,440.049114 L574.310581,440.049114 L574.310581,441.889966 L566.69163,441.889966 L566.69163,445.571671 L541.97605,445.571671 L541.97605,525.059684 L529.903511,525.059684 L529.903511,531.48426 L522.542206,531.48426 L522.542206,338.673364 L514.223932,334.991659 L492.360857,334.991659 L453.437959,345.042714 L453.437959,357.229157 L447.751351,359.327729 L440.942145,374.717257 L440.942145,400.489192 L434.648229,403.655459 L434.648229,416.762329 L415.159175,416.762329 L415.159175,418.916126 L421.526704,418.916126 L421.526704,423.591892 L415.159175,423.591892 L415.159175,426.003409 L416.465807,426.003409 L416.465807,430.016467 L415.159175,430.016467 L415.159175,432.464801 L416.465807,432.464801 L416.465807,436.47786 L415.159175,436.47786 L415.159175,438.999828 L416.465807,438.999828 L416.465807,442.884026 L415.159175,442.884026 L415.159175,445.700531 L416.465807,445.700531 L416.465807,449.382236 L415.159175,449.382236 L415.159175,451.664893 L416.465807,451.664893 L416.465807,455.806811 L415.159175,455.806811 L415.159175,458.218328 L416.465807,458.218328 L416.465807,462.231387 L415.159175,462.231387 L415.159175,464.642904 L416.465807,464.642904 L416.465807,468.600737 L413.99977,468.195749 L405.939141,450.689241 L381.49961,450.689241 L381.49961,452.290783 L363.795673,455.714769 L363.795673,455.714769 L364.053318,455.714769 L362.783493,399.108553 L362.489041,398.556297 L366.592968,398.556297 C366.592968,398.556297 365.672805,391.045619 376.493923,390.695857 L379.953736,369.838997 L383.634389,366.157292 L379.953736,366.157292 C379.953736,366.157292 377.616522,356.400774 364.053318,355.627616 L364.053318,349.626436 L357.004869,349.626436 L357.004869,349.479168 L354.741268,315.699524 L352.49607,349.479168 L352.753716,349.479168 L352.753716,349.626436 L345.208379,349.626436 L345.907703,355.425122 C339.347765,355.760035 333.277314,358.998535 329.344767,364.261214 L329.344767,366.102067 L324.743952,365.899573 L328.884686,369.581278 L329.804849,376.263573 L331.424336,390.438137 L335.34423,390.438137 C335.34423,390.438137 341.564533,390.198827 341.564533,398.298578 L345.134766,398.298578 L345.134766,435.115629 L344.343425,471.17793 L316.959372,471.17793 L316.959372,473.939209 L302.862474,473.939209 L302.862474,319.307595 C249.989904,311.281478 197.540609,319.307595 197.540609,319.307595 L188.449397,325.179915 L188.449397,581.573857 L163.034493,581.573857 L163.034493,610.327974 L151.16439,610.327974 L151.16439,626.472251 L148.367094,626.472251 L148.367094,582.199747 L130.460721,582.199747 L130.460721,489.53123 L113.088042,486.052019 L63.8961238,486.052019 L52.08123,489.015791 L52.08123,548.733048 L6.07307628,548.733048 L6.07307628,585.550099 L-2.5243549e-29,585.550099 L-2.27373675e-13,645 L1440,645 L1440,351.596149 C1405.32826,346.791523 1358.71279,359.603857 1358.71279,359.603857 Z" id="Calgary-Skyline"></path>
        </g>
    </g>
</svg>