<svg xmlns="http://www.w3.org/2000/svg" xmlns:xlink="http://www.w3.org/1999/xlink" viewBox="0 0 804.46 632.86"><defs><linearGradient id="linear-gradient" x1="322.17" y1="459.26" x2="322.17" y2="63.55" gradientUnits="userSpaceOnUse"><stop offset="0.03" stop-color="#51ffff"/><stop offset="0.04" stop-color="#4ef6f6"/><stop offset="0.08" stop-color="#40c8c8"/><stop offset="0.12" stop-color="#329d9d"/><stop offset="0.17" stop-color="#267777"/><stop offset="0.22" stop-color="#1c5757"/><stop offset="0.28" stop-color="#133b3b"/><stop offset="0.34" stop-color="#0c2525"/><stop offset="0.42" stop-color="#071414"/><stop offset="0.51" stop-color="#030909"/><stop offset="0.64" stop-color="#010202"/><stop offset="1"/></linearGradient><linearGradient id="linear-gradient-2" x1="220.49" y1="397.58" x2="310.09" y2="397.58" gradientUnits="userSpaceOnUse"><stop offset="0.13" stop-color="#ef3e2a"/><stop offset="1" stop-color="#fff"/></linearGradient><linearGradient id="linear-gradient-3" x1="238.66" y1="373.05" x2="149.05" y2="373.05" gradientUnits="userSpaceOnUse"><stop offset="0.03" stop-color="#afffff"/><stop offset="0.12" stop-color="#98dede"/><stop offset="0.31" stop-color="#6b9b9b"/><stop offset="0.48" stop-color="#456464"/><stop offset="0.65" stop-color="#273939"/><stop offset="0.79" stop-color="#121a1a"/><stop offset="0.91" stop-color="#050707"/><stop offset="1"/></linearGradient><linearGradient id="linear-gradient-4" x1="264.29" y1="225.14" x2="353.89" y2="225.14" xlink:href="#linear-gradient-2"/><linearGradient id="linear-gradient-5" x1="192.85" y1="200.61" x2="282.45" y2="200.61" gradientUnits="userSpaceOnUse"><stop offset="0.11" stop-color="#1e1e1c"/><stop offset="0.2" stop-color="#232523"/><stop offset="0.32" stop-color="#2f3937"/><stop offset="0.47" stop-color="#445a58"/><stop offset="0.64" stop-color="#628786"/><stop offset="0.82" stop-color="#87c0c0"/><stop offset="1" stop-color="#afffff"/></linearGradient><linearGradient id="linear-gradient-6" x1="259.08" y1="312.32" x2="517.24" y2="312.32" gradientUnits="userSpaceOnUse"><stop offset="0.11" stop-color="#fff"/><stop offset="0.22" stop-color="#e2ffff"/><stop offset="0.49" stop-color="#a1ffff"/><stop offset="0.72" stop-color="#71ffff"/><stop offset="0.9" stop-color="#54ffff"/><stop offset="1" stop-color="#49ffff"/></linearGradient><linearGradient id="linear-gradient-7" x1="301.95" y1="251.89" x2="517.24" y2="251.89" gradientUnits="userSpaceOnUse"><stop offset="0.08" stop-color="aqua"/><stop offset="0.43" stop-color="#00fdfd"/><stop offset="0.56" stop-color="#01f6f6"/><stop offset="0.65" stop-color="#03ebea"/><stop offset="0.72" stop-color="#05dada"/><stop offset="0.78" stop-color="#08c4c4"/><stop offset="0.84" stop-color="#0ba9a8"/><stop offset="0.89" stop-color="#0f8988"/><stop offset="0.93" stop-color="#146462"/><stop offset="0.97" stop-color="#193b39"/><stop offset="1" stop-color="#1d1d1b"/></linearGradient><linearGradient id="linear-gradient-8" x1="425.51" y1="419.15" x2="487.13" y2="419.15" xlink:href="#linear-gradient-2"/><linearGradient id="linear-gradient-9" x1="322.85" y1="289.79" x2="425.14" y2="289.79" gradientUnits="userSpaceOnUse"><stop offset="0.03" stop-color="#afffff"/><stop offset="0.21" stop-color="#adfcfc"/><stop offset="0.34" stop-color="#a7f3f3"/><stop offset="0.45" stop-color="#9de3e3"/><stop offset="0.55" stop-color="#8fcdcd"/><stop offset="0.65" stop-color="#7cb1b0"/><stop offset="0.74" stop-color="#668e8d"/><stop offset="0.83" stop-color="#4b6462"/><stop offset="0.92" stop-color="#2c3533"/><stop offset="0.95" stop-color="#1d1d1b"/></linearGradient><linearGradient id="linear-gradient-10" x1="464.42" y1="277.93" x2="515.68" y2="277.93" xlink:href="#linear-gradient-9"/><linearGradient id="linear-gradient-11" x1="467.71" y1="293.47" x2="509.66" y2="293.47" xlink:href="#linear-gradient-2"/><linearGradient id="linear-gradient-12" x1="358.45" y1="305.53" x2="421.28" y2="305.53" xlink:href="#linear-gradient-2"/><linearGradient id="linear-gradient-13" x1="427.53" y1="468.26" x2="479.97" y2="468.26" xlink:href="#linear-gradient-2"/><linearGradient id="linear-gradient-14" x1="210.73" y1="413.96" x2="209.68" y2="413.96" gradientUnits="userSpaceOnUse"><stop offset="0" stop-color="#afffff"/><stop offset="0.2" stop-color="#adfcfc"/><stop offset="0.34" stop-color="#a7f3f3"/><stop offset="0.46" stop-color="#9ee4e4"/><stop offset="0.57" stop-color="#90cfce"/><stop offset="0.68" stop-color="#7eb3b2"/><stop offset="0.77" stop-color="#689190"/><stop offset="0.86" stop-color="#4e6867"/><stop offset="0.95" stop-color="#303b39"/><stop offset="1" stop-color="#1d1d1b"/></linearGradient><linearGradient id="linear-gradient-15" x1="208.28" y1="404.33" x2="207.47" y2="404.33" xlink:href="#linear-gradient-14"/><linearGradient id="linear-gradient-16" x1="209.43" y1="409.16" x2="208.5" y2="409.16" xlink:href="#linear-gradient-14"/><linearGradient id="linear-gradient-17" x1="204.23" y1="364.81" x2="204.16" y2="364.81" xlink:href="#linear-gradient-14"/><linearGradient id="linear-gradient-18" x1="205.66" y1="389.65" x2="205.2" y2="389.65" xlink:href="#linear-gradient-14"/><linearGradient id="linear-gradient-19" x1="204.32" y1="374.78" x2="204.19" y2="374.78" xlink:href="#linear-gradient-14"/><linearGradient id="linear-gradient-20" x1="204.62" y1="379.75" x2="204.39" y2="379.75" xlink:href="#linear-gradient-14"/><linearGradient id="linear-gradient-21" x1="205.07" y1="384.71" x2="204.73" y2="384.71" xlink:href="#linear-gradient-14"/><linearGradient id="linear-gradient-22" x1="206.39" y1="394.57" x2="205.82" y2="394.57" xlink:href="#linear-gradient-14"/><linearGradient id="linear-gradient-23" x1="228.52" y1="454.78" x2="226.43" y2="454.78" xlink:href="#linear-gradient-14"/><linearGradient id="linear-gradient-24" x1="204.17" y1="369.8" x2="204.14" y2="369.8" xlink:href="#linear-gradient-14"/><linearGradient id="linear-gradient-25" x1="423.05" y1="78.56" x2="421.03" y2="78.56" xlink:href="#linear-gradient-14"/><linearGradient id="linear-gradient-26" x1="427.99" y1="228.21" x2="64.96" y2="228.21" xlink:href="#linear-gradient-14"/><linearGradient id="linear-gradient-27" x1="215.44" y1="428.08" x2="214.02" y2="428.08" xlink:href="#linear-gradient-14"/><linearGradient id="linear-gradient-28" x1="217.29" y1="432.69" x2="215.74" y2="432.69" xlink:href="#linear-gradient-14"/><linearGradient id="linear-gradient-29" x1="213.73" y1="423.42" x2="212.43" y2="423.42" xlink:href="#linear-gradient-14"/><linearGradient id="linear-gradient-30" x1="212.16" y1="418.72" x2="210.99" y2="418.72" xlink:href="#linear-gradient-14"/><linearGradient id="linear-gradient-31" x1="207.26" y1="399.47" x2="206.57" y2="399.47" xlink:href="#linear-gradient-14"/><linearGradient id="linear-gradient-32" x1="213.03" y1="315.67" x2="212.37" y2="315.67" xlink:href="#linear-gradient-14"/><linearGradient id="linear-gradient-33" x1="204.46" y1="359.84" x2="204.3" y2="359.84" xlink:href="#linear-gradient-14"/><linearGradient id="linear-gradient-34" x1="223.63" y1="446.14" x2="221.74" y2="446.14" xlink:href="#linear-gradient-14"/><linearGradient id="linear-gradient-35" x1="214.72" y1="310.79" x2="214.14" y2="310.79" xlink:href="#linear-gradient-14"/><linearGradient id="linear-gradient-36" x1="219.27" y1="437.24" x2="217.61" y2="437.24" xlink:href="#linear-gradient-14"/><linearGradient id="linear-gradient-37" x1="420.81" y1="76.51" x2="418.96" y2="76.51" xlink:href="#linear-gradient-14"/><linearGradient id="linear-gradient-38" x1="226.01" y1="450.5" x2="224.02" y2="450.5" xlink:href="#linear-gradient-14"/><linearGradient id="linear-gradient-39" x1="418.53" y1="74.57" x2="416.75" y2="74.57" xlink:href="#linear-gradient-14"/><linearGradient id="linear-gradient-40" x1="416.22" y1="72.58" x2="413.86" y2="72.58" xlink:href="#linear-gradient-14"/><linearGradient id="linear-gradient-41" x1="221.38" y1="441.72" x2="219.6" y2="441.72" xlink:href="#linear-gradient-14"/><linearGradient id="linear-gradient-42" x1="205.35" y1="349.89" x2="205.03" y2="349.89" xlink:href="#linear-gradient-14"/><linearGradient id="linear-gradient-43" x1="206.01" y1="344.93" x2="205.61" y2="344.93" xlink:href="#linear-gradient-14"/><linearGradient id="linear-gradient-44" x1="204.83" y1="354.86" x2="204.59" y2="354.86" xlink:href="#linear-gradient-14"/><linearGradient id="linear-gradient-45" x1="211.49" y1="320.5" x2="210.83" y2="320.5" xlink:href="#linear-gradient-14"/><linearGradient id="linear-gradient-46" x1="206.81" y1="340" x2="206.35" y2="340" xlink:href="#linear-gradient-14"/><linearGradient id="linear-gradient-47" x1="207.76" y1="335.08" x2="207.24" y2="335.08" xlink:href="#linear-gradient-14"/><linearGradient id="linear-gradient-48" x1="210.1" y1="325.34" x2="209.48" y2="325.34" xlink:href="#linear-gradient-14"/><linearGradient id="linear-gradient-49" x1="208.86" y1="330.2" x2="208.28" y2="330.2" xlink:href="#linear-gradient-14"/><linearGradient id="linear-gradient-50" x1="425.14" y1="535.92" x2="804.46" y2="535.92" xlink:href="#linear-gradient-2"/><linearGradient id="linear-gradient-51" x1="425.51" y1="433.24" x2="487.13" y2="433.24" gradientUnits="userSpaceOnUse"><stop offset="0.11" stop-color="#fff"/><stop offset="0.19" stop-color="#f8f8f8"/><stop offset="0.31" stop-color="#e5e5e5"/><stop offset="0.45" stop-color="#c6c6c5"/><stop offset="0.6" stop-color="#9a9a99"/><stop offset="0.77" stop-color="#626261"/><stop offset="0.95" stop-color="#1f1f1d"/><stop offset="0.95" stop-color="#1d1d1b"/></linearGradient><linearGradient id="linear-gradient-52" x1="310.09" y1="491.72" x2="387.48" y2="491.72" xlink:href="#linear-gradient-2"/><linearGradient id="linear-gradient-53" x1="197.59" y1="96.26" x2="222.05" y2="96.26" xlink:href="#linear-gradient-2"/><linearGradient id="linear-gradient-54" x1="548.84" y1="180.21" x2="596.72" y2="180.21" xlink:href="#linear-gradient-2"/><linearGradient id="linear-gradient-55" x1="59.73" y1="273.4" x2="59.73" y2="172.45" xlink:href="#linear-gradient-2"/><linearGradient id="linear-gradient-56" x1="67.36" y1="211.33" x2="92.07" y2="168.53" gradientUnits="userSpaceOnUse"><stop offset="0.04" stop-color="#898888"/><stop offset="0.19" stop-color="#7f7e7e"/><stop offset="0.47" stop-color="#636261"/><stop offset="0.82" stop-color="#363634"/><stop offset="1" stop-color="#1d1d1b"/></linearGradient><linearGradient id="linear-gradient-57" x1="77.93" y1="301.83" x2="98.87" y2="265.55" xlink:href="#linear-gradient-56"/><linearGradient id="linear-gradient-58" x1="70.31" y1="331.75" x2="70.31" y2="262.93" xlink:href="#linear-gradient-2"/><linearGradient id="linear-gradient-59" x1="150.7" y1="260.7" x2="150.7" y2="284.14" gradientUnits="userSpaceOnUse"><stop offset="0.03" stop-color="#ff2e4a"/><stop offset="0.12" stop-color="#f32d48"/><stop offset="0.28" stop-color="#d42b41"/><stop offset="0.49" stop-color="#a22737"/><stop offset="0.74" stop-color="#5d2228"/><stop offset="0.95" stop-color="#1d1d1b"/></linearGradient><linearGradient id="linear-gradient-60" x1="152.19" y1="279.57" x2="152.19" y2="303.01" xlink:href="#linear-gradient-2"/><linearGradient id="linear-gradient-61" x1="150.7" y1="270.24" x2="150.7" y2="293.68" xlink:href="#linear-gradient-2"/><linearGradient id="linear-gradient-62" x1="150.7" y1="260.7" x2="150.7" y2="284.14" xlink:href="#linear-gradient-2"/><linearGradient id="linear-gradient-63" x1="57.2" y1="108.49" x2="119.06" y2="108.49" xlink:href="#linear-gradient-2"/><linearGradient id="linear-gradient-64" x1="131.93" y1="279.11" x2="131.93" y2="220.1" xlink:href="#linear-gradient-2"/><linearGradient id="linear-gradient-65" x1="148.98" y1="228.2" x2="148.98" y2="210.91" xlink:href="#linear-gradient-2"/></defs><title>Asset 1</title><g id="Layer_2" data-name="Layer 2"><g id="Capa_1" data-name="Capa 1"><path d="M216.55,305.38c6.36-15.28,15-29.68,19.51-45.61,5.34-18.94,4.5-39,7.17-58.51,8.25-60,52.93-113.57,110.53-132.41,19.74-6.46,42.8-8.64,60.08,2.88,6,4,10.91,9.4,15.56,14.91,4.43,5.24,8.85,11.35,10.8,17.78-.32,0-.64,0-1-.05.75.33,1.49.67,2.23,1-2.83-23.15-24.63-40.77-47.64-44.58s-46.54,3.72-67.16,14.63C299.29,89.92,275,110.81,258.47,137s-17.13,57.5-20.35,88.32a126.87,126.87,0,0,1-4.64,23.19c-6.67,22.27-19.32,42.29-27.31,64.12-16.36,44.7-11.68,96.6,12.4,137.65,2.55,4.35,5.91,9,10.9,9.73l.47-1.22C201.22,413.85,196,354.67,216.55,305.38Z" fill="#51ffff"/><path d="M209.68,412c.33,1.29.69,2.57,1.05,3.85Q210.18,414,209.68,412Z" fill="#d9ffff"/><path d="M207.47,402.43c.25,1.27.53,2.54.81,3.81C208,405,207.72,403.7,207.47,402.43Z" fill="#d9ffff"/><path d="M208.5,407.25c.29,1.28.61,2.56.93,3.83C209.11,409.81,208.8,408.53,208.5,407.25Z" fill="#d9ffff"/><path d="M204.23,363.17c0,1.09,0,2.19-.06,3.28C204.18,365.36,204.19,364.27,204.23,363.17Z" fill="#d9ffff"/><path d="M205.2,387.82c.14,1.22.29,2.45.46,3.67C205.5,390.26,205.34,389,205.2,387.82Z" fill="#d9ffff"/><path d="M204.19,373c0,1.16.08,2.31.13,3.46C204.27,375.36,204.22,374.2,204.19,373Z" fill="#d9ffff"/><path d="M204.39,378c.06,1.18.15,2.36.24,3.54C204.54,380.34,204.45,379.16,204.39,378Z" fill="#d9ffff"/><path d="M204.73,382.9c.1,1.2.22,2.41.34,3.61C204.94,385.31,204.82,384.11,204.73,382.9Z" fill="#d9ffff"/><path d="M205.82,392.71c.17,1.25.37,2.49.57,3.73C206.19,395.2,206,394,205.82,392.71Z" fill="#d9ffff"/><path d="M228.52,456.53q-1.07-1.74-2.09-3.5Q227.45,454.79,228.52,456.53Z" fill="#d9ffff"/><path d="M204.17,371.49c0-1.13,0-2.25,0-3.38C204.13,369.24,204.15,370.36,204.17,371.49Z" fill="#d9ffff"/><path d="M423,79.55q-1-1-2-2Q422.05,78.54,423,79.55Z" fill="#d9ffff"/><path d="M218.57,450.33c-24.08-41.06-28.75-93-12.4-137.65,8-21.83,20.64-41.85,27.31-64.12a126.87,126.87,0,0,0,4.64-23.19c3.22-30.82,3.84-62.09,20.35-88.32s40.81-47.12,68.2-61.61C347.29,64.52,370.82,57,393.83,60.8A62.86,62.86,0,0,1,428,78.5h0C375-15.23,245.22,1.09,245.22,1.09S91,21.46,67.1,175.13C45.29,315.54,196.7,436.58,223,456.41A31.85,31.85,0,0,1,218.57,450.33Z" fill="#d9ffff"/><path d="M214,426.17q.69,1.92,1.42,3.83Q214.71,428.09,214,426.17Z" fill="#d9ffff"/><path d="M215.74,430.78q.75,1.91,1.54,3.8Q216.49,432.69,215.74,430.78Z" fill="#d9ffff"/><path d="M212.43,421.5q.62,1.93,1.3,3.85Q213.06,423.43,212.43,421.5Z" fill="#d9ffff"/><path d="M211,416.79q.56,1.93,1.18,3.85Q211.55,418.72,211,416.79Z" fill="#d9ffff"/><path d="M206.57,397.58c.21,1.26.45,2.52.69,3.77C207,400.1,206.79,398.84,206.57,397.58Z" fill="#d9ffff"/><path d="M213,314.66c-.23.67-.44,1.34-.66,2C212.59,316,212.8,315.33,213,314.66Z" fill="#d9ffff"/><path d="M204.46,358.23c-.07,1.07-.11,2.13-.15,3.2C204.35,360.37,204.39,359.3,204.46,358.23Z" fill="#d9ffff"/><path d="M223.63,448q-1-1.82-1.88-3.66Q222.66,446.16,223.63,448Z" fill="#d9ffff"/><path d="M214.72,310c-.2.53-.38,1.06-.58,1.6C214.34,311.06,214.52,310.53,214.72,310Z" fill="#d9ffff"/><path d="M217.61,435.35q.81,1.89,1.66,3.77Q218.41,437.25,217.61,435.35Z" fill="#d9ffff"/><path d="M419,75.67c.63.55,1.25,1.1,1.85,1.68Q419.9,76.49,419,75.67Z" fill="#d9ffff"/><path d="M226,452.29q-1-1.78-2-3.58Q225,450.51,226,452.29Z" fill="#d9ffff"/><path d="M416.75,73.85c.6.47,1.2,1,1.78,1.45C417.95,74.8,417.35,74.32,416.75,73.85Z" fill="#d9ffff"/><path d="M413.86,71.73c.81.54,1.59,1.11,2.36,1.69C415.45,72.84,414.66,72.27,413.86,71.73Z" fill="#d9ffff"/><path d="M221.38,443.58q-.91-1.85-1.77-3.72Q220.47,441.73,221.38,443.58Z" fill="#d9ffff"/><path d="M205.35,348.39c-.12,1-.22,2-.32,3C205.13,350.38,205.23,349.39,205.35,348.39Z" fill="#d9ffff"/><path d="M206,343.49c-.14,1-.27,1.92-.39,2.88C205.74,345.41,205.86,344.45,206,343.49Z" fill="#d9ffff"/><path d="M204.83,353.31c-.09,1-.17,2.07-.24,3.1C204.66,355.38,204.74,354.34,204.83,353.31Z" fill="#d9ffff"/><path d="M211.49,319.38c-.23.75-.44,1.5-.66,2.26C211.05,320.88,211.26,320.13,211.49,319.38Z" fill="#d9ffff"/><path d="M206.81,338.61c-.17.92-.31,1.84-.46,2.77C206.5,340.46,206.65,339.53,206.81,338.61Z" fill="#d9ffff"/><path d="M207.76,333.76c-.19.88-.35,1.77-.52,2.65C207.41,335.52,207.58,334.64,207.76,333.76Z" fill="#d9ffff"/><path d="M210.1,324.13c-.22.8-.42,1.61-.63,2.41C209.68,325.74,209.88,324.93,210.1,324.13Z" fill="#d9ffff"/><path d="M208.86,328.93c-.21.84-.39,1.69-.58,2.54C208.47,330.62,208.65,329.77,208.86,328.93Z" fill="#d9ffff"/><path d="M269.68,411c-3-20-15.7-40.24-8.36-59.11,4.83-12.41,17.07-20.08,25.51-30.38C304.67,299.77,304,269,308.32,241.16c5-32.39,18-63.83,39.39-88.69s51.21-42.79,83.62-47.63a36.79,36.79,0,0,1,8.88-.42c-1.95-6.42-6.36-12.53-10.8-17.78-4.65-5.5-9.56-10.91-15.56-14.91-17.28-11.52-40.35-9.33-60.08-2.88-57.6,18.84-102.29,72.37-110.53,132.41-2.68,19.49-1.84,39.57-7.17,58.51-4.49,15.93-13.15,30.33-19.51,45.61C196,354.82,201.25,414.21,230.2,459.26c6.45-3.71,11.63-9.25,17.47-13.86s13-8.42,20.38-7.69a14.19,14.19,0,0,1,3.19.72C270.36,429.35,271,420.06,269.68,411Z" fill="url(#linear-gradient)"/><path d="M286.84,321.52a64.81,64.81,0,0,0,9.47-15.86l-62.68-38.42c-3.89,10.68-9.26,20.82-14,31.2l57.89,32.83A115.19,115.19,0,0,0,286.84,321.52Z" fill="#898888"/><path d="M308.08,242.72l-65-39.87c-1.91,15-1.93,30.23-4.38,45l63.9,36.24C305.14,270.61,306.09,256.34,308.08,242.72Z" fill="#898888"/><path d="M265.82,343.86c3.31-4.55,7.49-8.56,11.67-12.59L219.83,298c-1.13,2.46-2.24,4.93-3.27,7.42q-1.91,4.59-3.52,9.29h0l52.77,29.2Z" fill="#afffff"/><path d="M236.06,259.77c-.71,2.53-1.54,5-2.44,7.47h0l62.68,38.42a105.15,105.15,0,0,0,6.25-21.52l-63.9-36.24A109.68,109.68,0,0,1,236.06,259.77Z" fill="#afffff"/><path d="M328.65,180.21a160.67,160.67,0,0,1,19.06-27.74,147.69,147.69,0,0,1,16.34-16.25L252.61,165.7a155,155,0,0,0-9.37,35.56c-.07.53-.13,1.06-.2,1.59l85.58-22.64Z" fill="#898888"/><path d="M312.37,221.58a182.12,182.12,0,0,1,16.26-41.33v0L243,202.85l41.37,25.36,28-6.62Z" fill="#afffff"/><polygon points="309.74 456.47 220.49 398.98 220.84 338.69 310.09 396.17 309.74 456.47" fill="url(#linear-gradient-2)"/><polygon points="238.31 431.94 149.05 374.45 149.4 314.16 238.66 371.64 238.31 431.94" fill="url(#linear-gradient-3)"/><polygon points="353.54 284.03 264.29 226.55 264.64 166.25 353.89 223.74 353.54 284.03" fill="url(#linear-gradient-4)"/><polygon points="282.1 259.5 192.85 202.01 193.2 141.72 282.45 199.21 282.1 259.5" fill="url(#linear-gradient-5)"/><path d="M216.55,305.38c6.36-15.28,15-29.68,19.51-45.61,5.34-18.94,4.5-39,7.17-58.51,8.25-60,52.93-113.57,110.53-132.41,19.74-6.46,42.8-8.64,60.08,2.88,6,4,10.91,9.4,15.56,14.91,4.43,5.24,8.85,11.35,10.8,17.78-.32,0-.64,0-1-.05.75.33,1.49.67,2.23,1-2.83-23.15-24.63-40.77-47.64-44.58s-46.54,3.72-67.16,14.63C299.29,89.92,275,110.81,258.47,137s-17.13,57.5-20.35,88.32a126.87,126.87,0,0,1-4.64,23.19c-6.67,22.27-19.32,42.29-27.31,64.12-16.36,44.7-11.68,96.6,12.4,137.65,2.55,4.35,5.91,9,10.9,9.73l.47-1.22C201.22,413.85,196,354.67,216.55,305.38Z" fill="aqua"/><path d="M513,228.63c-13.27-43.58-34.42-84.44-63.93-119.14.27.27-.87-2.07-.6-1.8-4.5-4-11.24-3.74-17.18-2.85-32.41,4.84-62.27,22.78-83.62,47.63s-34.42,56.3-39.39,88.69c-4.27,27.8-3.64,58.61-21.48,80.37-8.44,10.3-20.68,18-25.51,30.38C254,370.77,266.71,391,269.68,411c1.73,11.62.12,23.64,2.77,35.09,4.44,19.15,21.74,34.62,41.27,36.89,42.1,4.89,78.58,33.31,120.84,36.64,11.5.91,28.18,2.8,35.67-8.12q.74-1.08,1.4-2.19c13.32-22.25,4.54-53.42,12.61-77.56,2.4-7.16,5.89-14,7.16-21.47,1-5.68.59-11.5,1.15-17.23,1.87-19.09,13.88-35.84,17.18-54.73,2.31-13.23.24-26.84,0-40.27-3.28,6.94-11.53,10.82-19.3,10.63-8.2-.2-15.88-4.07-22.68-8.66a38.77,38.77,0,0,1,41.08-5.86,5.11,5.11,0,0,1,.87.51A77.24,77.24,0,0,1,511,279.9c1.72-8.63,5.39-16.87,6.1-25.64S515.58,237,513,228.63ZM397.28,323.86c-7.93,2.74-16.82,2-24.64-1a43.83,43.83,0,0,1-14.19-9c7.44-7,17.6-10.72,27.79-11.37s20.41,1.63,29.89,5.44c2.23.9,4.72,2.23,5.15,4.6C412.61,314.44,405.67,321,397.28,323.86Z" fill="url(#linear-gradient-6)"/><path d="M513,228.63c-13.27-43.58-34.42-84.44-63.93-119.14.27.27-.87-2.07-.6-1.8-4.5-4-11.24-3.74-17.18-2.85-32.41,4.84-62.27,22.78-83.62,47.63s-34.42,56.3-39.39,88.69c-2.32,15.09-3.2,31.07-6.37,46l8.4,2.79c12,4,24.41,8.05,37.07,7.34,12.06-.68,23.39-5.62,35-9.09a145.75,145.75,0,0,1,43-6.11L444.67,332c3.58,9.26,7.14,19.85,2.77,28.76-5.24,10.69-20.84,16.76-19.51,28.59.71,6.33,7.51,11.25,13.74,10,6.56-1.37,11.41-8.27,18.1-8.1,6.42.17,11.2,6.88,17.61,7.23,6.15.33,11.15-5.64,12.06-11.72s-1.19-12.17-3.17-18A701.24,701.24,0,0,1,465,292.33c-.88-4-1.7-8.38-.05-12.16,1.24-2.85,3.72-5,6.25-6.77a63.69,63.69,0,0,1,41.6-11.62c1,.08,2,.17,3,.22a51.09,51.09,0,0,0,1.3-7.74C517.81,245.59,515.58,237,513,228.63Z" fill="url(#linear-gradient-7)"/><path d="M477.58,424.09c2.92-1.47,6.29-1.72,9.55-1.94a39.79,39.79,0,0,0-5.92-9.36c-1.56-1.84-3.57-3.66-6-3.66-4.21,0-6.63,5.31-10.75,6.15-3.54.73-6.77-2.06-10.29-2.92-4.1-1-8.37.67-12.06,2.73a56.81,56.81,0,0,0-16.62,14.08,65.39,65.39,0,0,1,32.8-1.33c3.94.86,8.11,2.07,11.9.7C472.92,427.56,475,425.38,477.58,424.09Z" fill="url(#linear-gradient-8)"/><path d="M358,480.46c-7.44-10-14-21.73-12.83-34.1,1.5-16.18,15.57-28.72,18.68-44.67a35.06,35.06,0,0,0-11.25-32.57c-11.1-9.6-27-11.16-39.79-18.29a51.67,51.67,0,0,1-24.3-31.43q-.81,1.08-1.67,2.13c-8.44,10.3-20.68,18-25.51,30.38C254,370.77,266.71,391,269.68,411c1.73,11.62.12,23.64,2.77,35.09,4.44,19.15,21.74,34.62,41.27,36.89,20.93,2.43,40.47,10.68,60,18.76C369.17,494.27,363.26,487.52,358,480.46Z" fill="#52ffff"/><path d="M322.85,294.24l35.59,19.62s18.47-15.8,43.83-10.53c0,0,18.38,4.53,19,9.2,0,0-4.16-15.42,3-30.73,0,0,7.63-15.79-23-15.79A102.45,102.45,0,0,0,322.85,294.24Z" fill="url(#linear-gradient-9)"/><path d="M467.71,300s-15.19-40.71,19.74-43.58c0,0,20.57-3.35,28.23,5.74,0,0-6.29,16.66-6,32.49C509.66,294.67,491,283.31,467.71,300Z" fill="url(#linear-gradient-10)"/><path d="M322.85,294.24s49.76-31.1,89.48-18.18c0,0,11.48,8.13,13.4,1.91S442,304.29,442,304.29s4.31,47.85-1.91,47.85H320Z" fill="none"/><path d="M468.1,275.69a3.17,3.17,0,0,0,1.57-.85,56.45,56.45,0,0,1,13.07-8.43c6.5-2.83,13.65-3.76,20.69-4.65,4.56-.58,9.42-1.11,13.54.91,1.32-1.26.91-3.6-.38-4.89a9.71,9.71,0,0,0-4.93-2.18A62.62,62.62,0,0,0,491,254.09a35.81,35.81,0,0,0-19,7.71c-3.18,2.67-5.88,6.28-6.18,10.42C465.73,273.79,466.53,275.87,468.1,275.69Z"/><path d="M420,269.57c-11.4-7.29-32.89-4.48-45.78-2A101.71,101.71,0,0,0,353,274.25c-8.34,3.11-20.38,9.11-30.15,20a132.75,132.75,0,0,1,20.64-10.86c4-1.44,8-2.68,11.29-3.8,11.58-3.91,23.76-7,36-7.31a51.44,51.44,0,0,1,18,2.46,24.3,24.3,0,0,1,3.32,1.69c4.24,2.41,10.16,5.94,12.89,2.87C427.57,276.4,421.9,270.76,420,269.57Z"/><path d="M467.71,300s19.67-25.49,42-5.35C509.66,294.67,485.29,284.27,467.71,300Z" fill="url(#linear-gradient-11)"/><path d="M421.28,312.53s-.14-.17-.41-.46c-30.17-34.5-62.42,1.79-62.42,1.79l.63-.49C363.21,310.27,387.63,293.92,421.28,312.53Z" fill="url(#linear-gradient-12)"/><path d="M477.58,424.09c-2.57,1.29-4.67,3.47-7.37,4.45-3.79,1.37-8,.16-11.9-.7a65.39,65.39,0,0,0-32.8,1.33v24.35a39.45,39.45,0,0,0,2.52,8.11c8.75,2.9,38,11,51.77-5.64,0,0,2.23-26.51,7.33-33.84C483.87,422.37,480.5,422.62,477.58,424.09Z"/><path d="M479.8,456c-6,7.3-16,10.39-25.39,10.24-9.2-.14-18.12-3-26.88-5.81a26.6,26.6,0,0,0,8.65,11.76c1.26.87,2.56,1.67,3.87,2.41,6.83,3.82,14.59,6.64,22.37,5.79s15.45-6.15,17.12-13.79C480.3,463.13,479.82,459.53,479.8,456Z" fill="url(#linear-gradient-13)"/><path d="M209.68,412c.33,1.29.69,2.57,1.05,3.85Q210.18,414,209.68,412Z" fill="url(#linear-gradient-14)"/><path d="M207.47,402.43c.25,1.27.53,2.54.81,3.81C208,405,207.72,403.7,207.47,402.43Z" fill="url(#linear-gradient-15)"/><path d="M208.5,407.25c.29,1.28.61,2.56.93,3.83C209.11,409.81,208.8,408.53,208.5,407.25Z" fill="url(#linear-gradient-16)"/><path d="M204.23,363.17c0,1.09,0,2.19-.06,3.28C204.18,365.36,204.19,364.27,204.23,363.17Z" fill="url(#linear-gradient-17)"/><path d="M205.2,387.82c.14,1.22.29,2.45.46,3.67C205.5,390.26,205.34,389,205.2,387.82Z" fill="url(#linear-gradient-18)"/><path d="M204.19,373c0,1.16.08,2.31.13,3.46C204.27,375.36,204.22,374.2,204.19,373Z" fill="url(#linear-gradient-19)"/><path d="M204.39,378c.06,1.18.15,2.36.24,3.54C204.54,380.34,204.45,379.16,204.39,378Z" fill="url(#linear-gradient-20)"/><path d="M204.73,382.9c.1,1.2.22,2.41.34,3.61C204.94,385.31,204.82,384.11,204.73,382.9Z" fill="url(#linear-gradient-21)"/><path d="M205.82,392.71c.17,1.25.37,2.49.57,3.73C206.19,395.2,206,394,205.82,392.71Z" fill="url(#linear-gradient-22)"/><path d="M228.52,456.53q-1.07-1.74-2.09-3.5Q227.45,454.79,228.52,456.53Z" fill="url(#linear-gradient-23)"/><path d="M204.17,371.49c0-1.13,0-2.25,0-3.38C204.13,369.24,204.15,370.36,204.17,371.49Z" fill="url(#linear-gradient-24)"/><path d="M423,79.55q-1-1-2-2Q422.05,78.54,423,79.55Z" fill="url(#linear-gradient-25)"/><path d="M218.57,450.33c-24.08-41.06-28.75-93-12.4-137.65,8-21.83,20.64-41.85,27.31-64.12a126.87,126.87,0,0,0,4.64-23.19c3.22-30.82,3.84-62.09,20.35-88.32s40.81-47.12,68.2-61.61C347.29,64.52,370.82,57,393.83,60.8A62.86,62.86,0,0,1,428,78.5h0C375-15.23,245.22,1.09,245.22,1.09S91,21.46,67.1,175.13C45.29,315.54,196.7,436.58,223,456.41A31.85,31.85,0,0,1,218.57,450.33Z" fill="url(#linear-gradient-26)"/><path d="M214,426.17q.69,1.92,1.42,3.83Q214.71,428.09,214,426.17Z" fill="url(#linear-gradient-27)"/><path d="M215.74,430.78q.75,1.91,1.54,3.8Q216.49,432.69,215.74,430.78Z" fill="url(#linear-gradient-28)"/><path d="M212.43,421.5q.62,1.93,1.3,3.85Q213.06,423.43,212.43,421.5Z" fill="url(#linear-gradient-29)"/><path d="M211,416.79q.56,1.93,1.18,3.85Q211.55,418.72,211,416.79Z" fill="url(#linear-gradient-30)"/><path d="M206.57,397.58c.21,1.26.45,2.52.69,3.77C207,400.1,206.79,398.84,206.57,397.58Z" fill="url(#linear-gradient-31)"/><path d="M213,314.66c-.23.67-.44,1.34-.66,2C212.59,316,212.8,315.33,213,314.66Z" fill="url(#linear-gradient-32)"/><path d="M204.46,358.23c-.07,1.07-.11,2.13-.15,3.2C204.35,360.37,204.39,359.3,204.46,358.23Z" fill="url(#linear-gradient-33)"/><path d="M223.63,448q-1-1.82-1.88-3.66Q222.66,446.16,223.63,448Z" fill="url(#linear-gradient-34)"/><path d="M214.72,310c-.2.53-.38,1.06-.58,1.6C214.34,311.06,214.52,310.53,214.72,310Z" fill="url(#linear-gradient-35)"/><path d="M217.61,435.35q.81,1.89,1.66,3.77Q218.41,437.25,217.61,435.35Z" fill="url(#linear-gradient-36)"/><path d="M419,75.67c.63.55,1.25,1.1,1.85,1.68Q419.9,76.49,419,75.67Z" fill="url(#linear-gradient-37)"/><path d="M226,452.29q-1-1.78-2-3.58Q225,450.51,226,452.29Z" fill="url(#linear-gradient-38)"/><path d="M416.75,73.85c.6.47,1.2,1,1.78,1.45C417.95,74.8,417.35,74.32,416.75,73.85Z" fill="url(#linear-gradient-39)"/><path d="M413.86,71.73c.81.54,1.59,1.11,2.36,1.69C415.45,72.84,414.66,72.27,413.86,71.73Z" fill="url(#linear-gradient-40)"/><path d="M221.38,443.58q-.91-1.85-1.77-3.72Q220.47,441.73,221.38,443.58Z" fill="url(#linear-gradient-41)"/><path d="M205.35,348.39c-.12,1-.22,2-.32,3C205.13,350.38,205.23,349.39,205.35,348.39Z" fill="url(#linear-gradient-42)"/><path d="M206,343.49c-.14,1-.27,1.92-.39,2.88C205.74,345.41,205.86,344.45,206,343.49Z" fill="url(#linear-gradient-43)"/><path d="M204.83,353.31c-.09,1-.17,2.07-.24,3.1C204.66,355.38,204.74,354.34,204.83,353.31Z" fill="url(#linear-gradient-44)"/><path d="M211.49,319.38c-.23.75-.44,1.5-.66,2.26C211.05,320.88,211.26,320.13,211.49,319.38Z" fill="url(#linear-gradient-45)"/><path d="M206.81,338.61c-.17.92-.31,1.84-.46,2.77C206.5,340.46,206.65,339.53,206.81,338.61Z" fill="url(#linear-gradient-46)"/><path d="M207.76,333.76c-.19.88-.35,1.77-.52,2.65C207.41,335.52,207.58,334.64,207.76,333.76Z" fill="url(#linear-gradient-47)"/><path d="M210.1,324.13c-.22.8-.42,1.61-.63,2.41C209.68,325.74,209.88,324.93,210.1,324.13Z" fill="url(#linear-gradient-48)"/><path d="M208.86,328.93c-.21.84-.39,1.69-.58,2.54C208.47,330.62,208.65,329.77,208.86,328.93Z" fill="url(#linear-gradient-49)"/><polygon points="666.92 550.6 668.16 550.6 481.54 438.97 466.8 439.17 466.47 438.97 425.14 439.53 561.57 521.79 561.43 521.79 745.64 632.86 760.71 632.86 789.39 632.86 804.46 632.86 666.92 550.6" fill="url(#linear-gradient-50)"/><path d="M477.58,424.09c-2.57,1.29-4.67,3.47-7.37,4.45-3.79,1.37-8,.16-11.9-.7a65.39,65.39,0,0,0-32.8,1.33v12.49c14.76,1.78,30.59,4.42,45.17,1A96.39,96.39,0,0,0,482,439.24c1.19-6.81,2.88-13.84,5.15-17.09C483.87,422.37,480.5,422.62,477.58,424.09Z" fill="url(#linear-gradient-51)"/><circle cx="348.79" cy="491.72" r="38.7" fill="url(#linear-gradient-52)"/><circle cx="209.82" cy="96.26" r="12.23" fill="url(#linear-gradient-53)"/><circle cx="572.78" cy="180.21" r="23.94" fill="url(#linear-gradient-54)"/><circle cx="33.01" cy="317.33" r="15.93" fill="#51ffff"/><circle cx="644.88" cy="384.71" r="15.93" fill="#51ffff"/><circle cx="550.07" cy="527.12" r="22.71" fill="#51ffff"/><polygon points="0 172.45 0 210.18 119.47 273.4 119.47 236.6 0 172.45" fill="url(#linear-gradient-55)"/><path d="M56.17,181.86l10.23-1.65h0c.21-1.69.43-3.38.69-5.08,1-6.52,2.28-12.79,3.74-18.84v0L0,172.45,119.47,236.6,147,228.88Z" fill="url(#linear-gradient-56)"/><path d="M76.88,270.72c-2.43-7-4.54-14.21-6.28-21.49l-60,13.71L130,327.09l27.57-7.72-90.87-47Z" fill="url(#linear-gradient-57)"/><polygon points="130.04 327.07 10.57 262.93 10.57 268.14 130.04 331.75 130.04 327.07" fill="url(#linear-gradient-58)"/><polygon points="130.04 327.07 157.61 319.37 157.61 323.22 130.04 331.75 130.04 327.07"/><polygon points="161.23 260.7 117.57 274.23 140.16 284.14 183.83 270.62 161.23 260.7" fill="url(#linear-gradient-59)"/><polygon points="162.73 279.57 119.06 293.1 141.66 303.01 185.32 289.49 162.73 279.57" fill="url(#linear-gradient-60)"/><polygon points="161.23 270.24 117.57 283.77 140.16 293.68 183.83 280.16 161.23 270.24" fill="url(#linear-gradient-61)"/><polygon points="161.23 260.7 117.57 274.23 140.16 284.14 183.83 270.62 161.23 260.7" fill="url(#linear-gradient-62)"/><circle cx="88.13" cy="108.49" r="30.93" fill="url(#linear-gradient-63)"/><path d="M140.8,279l0,.1V228.2L123,220.1v49.45Z" fill="url(#linear-gradient-64)"/><path d="M159.72,210.91,123,220.1l17.82,8.1,34.1-8.54C165.9,214.61,159.72,210.91,159.72,210.91Z" fill="url(#linear-gradient-65)"/></g></g></svg>